PathFileType	4	(X/Y/Z)	s07c0302.trc
DataRate	CameraRate	NumFrames	NumMarkers	Units	OrigDataRate	OrigDataStartFrame	OrigNumFrames
200	200	6	48	mm	200	500	2000
Frame#	Time	racr			lacr			c7			jug			rlel			rdr			llel			ldr			s2			lic			ric			lasi			rasi			rpsi			lpsi			rgt			lgt			rth1			rth2			rth3			rth4			rlfc			rmfc			rsh1			rsh2			rsh3			rsh4			rlmal			rcal			rtoe			rmt5			lth1			lth2			lth4			lth3			llfc			lmfc			lsh1			lsh2			lsh3			lsh4			llmal			lcal			ltoe			lmt5			SBIKE			LBIKE			RBIKE			
		X1	Y1	Z1	X2	Y2	Z2	X3	Y3	Z3	X4	Y4	Z4	X5	Y5	Z5	X6	Y6	Z6	X7	Y7	Z7	X8	Y8	Z8	X9	Y9	Z9	X10	Y10	Z10	X11	Y11	Z11	X12	Y12	Z12	X13	Y13	Z13	X14	Y14	Z14	X15	Y15	Z15	X16	Y16	Z16	X17	Y17	Z17	X18	Y18	Z18	X19	Y19	Z19	X20	Y20	Z20	X21	Y21	Z21	X22	Y22	Z22	X23	Y23	Z23	X24	Y24	Z24	X25	Y25	Z25	X26	Y26	Z26	X27	Y27	Z27	X28	Y28	Z28	X29	Y29	Z29	X30	Y30	Z30	X31	Y31	Z31	X32	Y32	Z32	X33	Y33	Z33	X34	Y34	Z34	X35	Y35	Z35	X36	Y36	Z36	X37	Y37	Z37	X38	Y38	Z38	X39	Y39	Z39	X40	Y40	Z40	X41	Y41	Z41	X42	Y42	Z42	X43	Y43	Z43	X44	Y44	Z44	X45	Y45	Z45	X46	Y46	Z46	X47	Y47	Z47	X48	Y48	Z48	
500	2.5000	747.018032	1414.259025	-149.084860	710.810193	1428.901573	-446.542961	722.636598	1475.563977	-298.091730	662.898971	1335.622895	-304.500712	576.161149	1140.662648	17.417937	725.360904	910.821673	-70.849970	531.522355	1126.103925	-517.861742	718.076513	916.802444	-422.544944	131.631102	1313.830139	-206.769984	260.822457	1357.820409	-362.580256	332.697559	1319.081937	-92.452298	288.813268	1279.649159	-359.038595	335.678744	1262.126161	-113.526626	177.040289	1343.855663	-162.173679	164.174255	1362.172839	-265.182679	257.947778	1187.932300	-47.817490	195.564286	1212.327307	-402.540603	322.198406	1041.746627	-71.797940	359.571322	965.021300	-92.811722	362.322848	879.708829	-91.814268	388.182411	975.244622	-113.777679	365.085787	739.229585	-118.827415	331.130803	734.434197	-218.554291	259.424716	643.031742	-82.578747	209.347285	570.591856	-97.008639	134.993681	527.409307	-83.929615	217.114796	561.724785	-136.838307	27.381299	437.289139	-75.281609	-48.096369	455.357386	-102.097070	120.041669	218.211696	-130.456797	50.112402	257.008598	-57.205178	266.576079	1107.096727	-417.863210	340.065130	1059.952638	-430.727268	367.450026	1083.634530	-426.385898	381.705533	980.932226	-432.318615	493.212420	831.338979	-409.813198	487.513289	815.549688	-317.419027	410.665492	703.989184	-428.220691	384.579935	624.979625	-404.751034	319.841899	562.816056	-408.465751	388.124018	628.780396	-362.984125	250.951356	464.614669	-401.667186	163.921259	422.848608	-368.765939	448.771835	371.811388	-367.207308	365.889707	354.694793	-432.162913	-262.343644	967.148903	-238.601761	-83.503000	79.220983	-437.121410	-83.476704	79.680281	-39.446205	
501	2.5050	746.663619	1414.583852	-147.771595	714.215900	1425.290791	-443.459717	724.167292	1472.497942	-298.904270	664.226483	1332.479674	-302.727758	576.724762	1140.241159	17.444986	725.184534	910.393903	-70.590970	529.323996	1123.785463	-517.959844	718.081044	916.774674	-422.738695	131.936221	1313.765114	-207.303926	261.161532	1355.078451	-363.407296	333.016485	1319.279259	-93.447182	288.781890	1277.423703	-359.700802	335.748582	1262.277987	-114.117590	177.381908	1343.953471	-162.908717	164.608729	1361.341223	-266.541137	258.673478	1188.513989	-47.614840	194.865773	1209.870057	-402.087608	324.820296	1043.341192	-71.701882	363.088235	966.962779	-92.916903	367.224274	881.647284	-91.597566	391.479033	977.448321	-113.881440	371.037978	741.155049	-118.734763	336.903691	736.427718	-218.492639	263.432185	647.090560	-82.562053	211.579135	576.169542	-96.872272	136.135885	535.156449	-83.959794	217.860951	566.316883	-137.608043	26.218018	447.112982	-75.398259	-49.290009	465.942431	-102.232326	118.230513	228.304434	-130.264949	48.108050	267.030841	-57.143046	264.082797	1103.395101	-417.284220	336.629845	1054.754673	-430.073384	364.501607	1077.904405	-425.950371	376.702432	974.884354	-431.076060	485.867604	824.226039	-408.101996	480.314803	807.975657	-316.799333	404.401179	696.488026	-427.376105	380.386613	616.680895	-404.303193	316.855678	553.227707	-407.899781	384.560033	619.958534	-362.523728	249.891959	452.469967	-401.103071	164.228785	409.941297	-368.289882	449.826211	362.329973	-366.841514	366.963156	344.489105	-432.040910	-262.359350	967.096192	-238.380465	-83.560157	79.134044	-437.037975	-83.490266	79.591909	-39.447792	
502	2.5100	746.448895	1415.643265	-146.611842	709.944109	1420.258437	-454.806114	724.999273	1469.132240	-298.864684	658.977658	1331.759773	-297.379145	577.390781	1140.123064	17.301860	725.128090	910.033103	-70.355413	527.533707	1121.474799	-518.071887	717.868479	916.301701	-422.464654	132.249358	1313.326342	-208.009697	261.600440	1352.075387	-364.496894	333.209948	1319.203779	-94.489567	288.797682	1274.914535	-360.415156	335.728733	1262.255128	-114.796291	177.634437	1343.817786	-163.866072	164.973616	1360.133826	-267.867095	259.310377	1189.057158	-47.519267	194.219083	1207.229105	-401.770869	327.192821	1044.617195	-71.413984	366.576228	968.624831	-92.616271	371.919421	883.569967	-90.970686	394.864955	979.412282	-114.309637	376.839313	743.079033	-118.481120	342.188985	739.052502	-218.433507	267.629624	651.280066	-82.437760	213.949732	581.644178	-96.800698	137.444047	542.596717	-83.913769	219.898260	571.495747	-137.586135	25.411349	457.352301	-75.410733	-49.893987	476.374834	-102.335549	117.003558	238.349944	-129.987315	46.730527	277.341564	-56.909178	261.682728	1099.632505	-416.661098	333.187553	1049.500537	-429.383976	361.529231	1072.104344	-425.488789	371.711676	968.780002	-429.754504	478.500057	817.303562	-406.437382	473.056964	800.213270	-315.410476	397.878937	689.039857	-426.180255	375.906402	608.876620	-404.123350	313.227817	544.080349	-407.176196	382.303978	610.734975	-362.578647	248.501856	440.333562	-400.551755	164.155556	397.428556	-367.190571	450.286542	352.661533	-367.214963	367.408390	334.046699	-431.395950	-262.358485	967.041919	-238.175428	-83.569453	79.095971	-437.043642	-83.518997	79.537797	-39.383423	
503	2.5150	746.163348	1417.105210	-145.745577	711.882432	1416.331406	-454.196102	726.139839	1466.506435	-299.022146	659.355608	1329.500345	-294.417402	578.201400	1140.382297	16.934587	724.442360	909.310199	-70.593437	526.234912	1119.270630	-518.253936	717.789107	915.606329	-422.195610	132.466603	1312.624050	-208.862456	262.183435	1348.894947	-366.024996	333.232142	1318.991871	-95.627336	288.942123	1272.286933	-361.544855	335.605735	1261.963427	-115.717168	177.811367	1343.357377	-165.137810	165.392858	1358.660932	-269.567614	259.738874	1189.409570	-47.519782	193.784457	1204.397112	-401.616896	329.275006	1045.274624	-71.856047	369.843523	970.254595	-91.952971	376.610231	885.133803	-89.864257	396.945698	980.866317	-114.541604	383.002076	744.901671	-118.092784	349.433957	739.819905	-217.951091	272.058237	655.359860	-82.185470	216.730610	586.979686	-96.588242	139.250161	549.954435	-83.789669	223.728794	577.222731	-136.498347	25.292744	467.451000	-75.494663	-49.999056	486.858130	-102.568058	116.470820	248.600032	-129.784471	46.041734	287.528454	-56.824747	259.321997	1095.749271	-416.128944	329.838199	1044.059378	-428.645569	358.528241	1066.335323	-425.086179	366.722549	962.649343	-428.345423	467.355246	812.557171	-409.839097	465.989245	793.407511	-312.830847	391.613750	681.608560	-425.131800	371.317971	600.944510	-403.833688	309.811639	535.287224	-406.591787	378.944298	601.934682	-362.228444	246.779034	428.254397	-400.017223	163.946829	385.642570	-366.271722	450.431212	342.584037	-367.231875	367.454613	323.774107	-430.980927	-262.333981	967.026723	-238.043833	-83.566122	79.097949	-437.005991	-83.521779	79.501918	-39.370709	
504	2.5200	745.872726	1418.552151	-145.478635	713.826592	1412.748279	-453.507772	727.072386	1464.217344	-299.362850	659.997047	1327.398058	-292.064884	579.045691	1140.904509	16.458795	724.474683	909.058613	-70.668463	525.600071	1117.089724	-518.478886	717.798431	914.809119	-421.817098	132.788676	1311.437191	-210.160267	262.809547	1345.480713	-367.506188	333.145160	1318.688391	-96.842038	289.147133	1269.502452	-362.589071	335.444213	1261.603784	-116.482641	177.376286	1343.047761	-165.692888	165.758753	1356.800929	-271.095559	260.032676	1189.630076	-47.615059	193.389404	1201.321886	-401.432374	331.097163	1046.246005	-71.211128	373.014011	971.731259	-91.073195	381.146954	886.730549	-88.481449	399.861081	982.705740	-113.752850	389.448171	746.828802	-117.360242	356.415109	741.422726	-217.227903	276.657781	659.604941	-81.820116	219.899619	592.518431	-96.195496	141.343404	556.977308	-83.641115	225.427187	581.935761	-137.003255	25.906514	477.408114	-75.580056	-49.407022	497.387691	-102.769318	116.614930	258.620185	-129.503417	45.869214	297.724941	-56.729370	257.107720	1091.671590	-415.570479	326.434698	1038.598745	-427.663731	355.651376	1060.345050	-424.614832	361.757677	956.527027	-426.700673	460.169076	805.514937	-407.949961	458.176650	786.390751	-311.664929	385.977391	673.920244	-424.233410	366.867390	592.599848	-403.026487	306.243914	525.880355	-405.235433	375.121717	593.443033	-361.410198	244.721540	416.281444	-399.503491	161.966235	375.808173	-366.217073	450.092499	332.277956	-367.187006	366.900446	313.397017	-430.650904	-262.311910	967.028846	-237.938937	-83.558654	79.102092	-437.004327	-83.491598	79.447509	-39.346041	
505	2.5250	745.572950	1419.845349	-145.617739	715.762152	1409.682875	-452.842176	727.759412	1462.443581	-299.658858	660.995995	1325.521029	-290.346436	580.026097	1141.510685	15.880775	724.656403	908.877762	-70.800153	525.465187	1115.096154	-518.970826	717.991066	913.830534	-421.624126	133.030801	1309.935759	-211.758126	263.610078	1341.879289	-368.993144	332.947102	1318.322857	-98.136156	289.523095	1266.327007	-363.580353	335.201432	1261.182851	-117.349324	177.927787	1341.714502	-168.057885	166.083358	1354.804925	-272.862703	260.237789	1189.745992	-47.770377	193.113572	1198.159032	-401.471164	332.841481	1047.040982	-70.429887	376.100182	973.194131	-89.867973	385.878486	888.308507	-86.891150	402.746092	984.452011	-112.790278	396.284143	749.016870	-116.101189	363.692279	743.149745	-216.374267	281.606730	663.991961	-81.188815	223.375073	598.063157	-95.727703	144.104326	564.266036	-83.443897	230.172515	587.703931	-135.560282	27.083137	487.404495	-75.866464	-48.201070	507.941064	-103.466978	117.393405	268.672970	-128.850798	46.053932	307.975833	-56.569156	254.886246	1087.505055	-415.198438	323.208871	1033.034606	-426.955975	352.798425	1054.170198	-424.156893	356.883703	950.390513	-425.441308	453.455569	798.395941	-407.009476	451.234046	778.704290	-310.057434	380.541566	666.011594	-422.778112	362.904189	584.277999	-401.864252	303.305439	516.390355	-403.935494	371.307025	585.684079	-360.470121	242.327362	404.463705	-399.014604	161.909983	364.515800	-364.914525	449.846861	322.992923	-368.722396	366.029252	302.930008	-430.275539	-262.301837	967.013259	-237.922488	-83.539671	79.100239	-436.994862	-83.492776	79.439088	-39.346599	
